 <svg  version="1.0" xmlns="http://www.w3.org/2000/svg"  width="498.000000pt" height="501.000000pt" viewBox="0 0 498.000000 501.000000"  preserveAspectRatio="xMidYMid meet">  <g transform="translate(0.000000,501.000000) scale(0.100000,-0.100000)" fill="#148f77" stroke="none"> <path d="M2185 4945 c-646 -75 -1231 -400 -1643 -914 -230 -286 -379 -590 -475 -966 -82 -323 -88 -744 -17 -1080 12 -55 24 -111 27 -125 8 -40 40 -138 72 -225 255 -690 797 -1231 1481 -1478 322 -116 673 -164 1024 -139 761 55 1444 453 1871 1092 223 334 349 677 401 1092 19 153 16 463 -6 618 -40 284 -134 580 -262 820 -177 335 -428 622 -748 857 -275 201 -621 352 -959 419 -220 43 -539 55 -766 29z m-301 -1064 c15 -6 92 -99 200 -243 97 -128 199 -262 226 -298 27 -36 95 -125 151 -197 56 -73 106 -133 113 -133 6 0 178 191 381 424 204 233 382 431 397 440 22 13 58 16 226 16 195 0 232 -3 232 -20 0 -8 -101 -128 -300 -355 -52 -60 -231 -264 -397 -454 -167 -190 -303 -353 -303 -363 0 -16 78 -123 480 -653 505 -666 700 -928 700 -939 0 -8 -7 -17 -16 -20 -29 -11 -879 -7 -912 5 -22 7 -56 43 -115 122 -47 62 -204 270 -349 462 -166 219 -272 351 -284 353 -15 2 -94 -83 -314 -334 -162 -186 -312 -356 -332 -378 -20 -23 -70 -80 -110 -127 -40 -48 -83 -92 -96 -98 -14 -7 -98 -11 -226 -11 -254 0 -254 0 -170 97 107 123 346 397 404 463 32 36 93 106 136 156 44 49 156 178 249 285 201 229 225 258 225 269 0 4 -86 122 -192 261 -374 495 -617 817 -776 1028 -89 118 -162 219 -162 226 0 6 3 15 7 18 10 11 899 8 927 -2z"/> <path d="M1530 3602 c-24 -8 -3 -48 92 -173 55 -74 178 -235 272 -359 94 -124 250 -331 348 -460 98 -129 189 -248 202 -265 13 -16 109 -145 214 -285 105 -140 265 -352 354 -470 l164 -215 127 -3 c98 -2 127 0 127 10 0 7 -131 186 -292 398 -160 212 -422 558 -581 770 -160 212 -334 441 -386 510 -52 69 -164 216 -249 328 -85 112 -159 205 -166 207 -15 5 -213 11 -226 7z"/> </g> </svg> 