 <svg  version="1.0" xmlns="http://www.w3.org/2000/svg"  width="720.000000pt" height="720.000000pt" viewBox="0 0 720.000000 720.000000"  preserveAspectRatio="xMidYMid meet">  <g transform="translate(0.000000,720.000000) scale(0.100000,-0.100000)" fill="#148f77" stroke="none"> <path d="M3330 6953 c-113 -4 -339 -38 -490 -75 -25 -6 -63 -14 -85 -18 -37 -6 -75 -17 -150 -42 -16 -5 -43 -13 -60 -18 -29 -8 -57 -17 -135 -45 -96 -35 -295 -120 -340 -146 -8 -5 -22 -12 -30 -15 -8 -3 -22 -10 -30 -15 -8 -5 -37 -20 -65 -34 -27 -15 -63 -35 -80 -45 -16 -11 -39 -24 -50 -30 -27 -14 -100 -61 -230 -151 -170 -116 -414 -338 -589 -534 -15 -16 -37 -41 -50 -55 -41 -46 -176 -229 -176 -240 0 -5 -4 -10 -9 -10 -5 0 -22 -21 -38 -46 -15 -26 -36 -58 -45 -73 -10 -14 -22 -35 -28 -46 -6 -11 -19 -33 -30 -50 -53 -83 -180 -333 -180 -356 0 -9 -7 -22 -15 -29 -8 -7 -15 -18 -15 -26 0 -14 -20 -66 -46 -117 -8 -16 -14 -34 -14 -42 0 -7 -7 -26 -15 -41 -8 -16 -15 -39 -15 -51 0 -12 -4 -24 -9 -27 -5 -4 -14 -28 -20 -54 -6 -26 -20 -78 -31 -117 -11 -38 -24 -90 -29 -115 -5 -25 -13 -65 -19 -90 -17 -69 -41 -227 -47 -305 -3 -38 -10 -104 -15 -145 -21 -173 -9 -466 31 -740 7 -41 15 -97 19 -125 7 -48 14 -79 47 -210 28 -107 45 -169 58 -205 32 -91 37 -107 45 -139 5 -18 13 -38 19 -44 6 -6 11 -20 11 -30 0 -10 6 -31 14 -45 7 -15 27 -56 43 -92 45 -98 100 -208 138 -275 19 -33 39 -69 45 -80 6 -11 19 -33 30 -50 11 -16 23 -37 27 -45 22 -47 221 -317 283 -385 213 -233 345 -360 500 -480 25 -19 52 -41 60 -48 8 -8 76 -54 151 -103 177 -117 172 -113 189 -121 8 -4 48 -26 88 -50 40 -24 79 -43 86 -43 7 0 19 -7 26 -15 7 -8 18 -15 25 -15 8 0 26 -7 42 -15 63 -32 160 -75 170 -75 6 0 24 -6 40 -14 29 -15 84 -36 144 -55 81 -25 160 -7 214 49 l30 31 0 351 c0 293 -2 351 -14 356 -8 3 -51 -2 -95 -11 -111 -23 -412 -24 -511 -1 -38 9 -83 20 -100 26 -16 6 -42 13 -57 15 -15 3 -33 11 -39 19 -6 8 -18 14 -25 14 -15 0 -131 77 -160 106 -61 62 -94 116 -183 304 -32 67 -36 74 -83 148 -16 24 -28 45 -28 48 0 10 -93 128 -129 165 -20 19 -67 56 -106 81 -166 109 -185 179 -58 213 61 17 70 17 150 1 191 -38 325 -144 487 -388 31 -48 90 -118 130 -155 69 -65 178 -133 211 -133 9 0 26 -6 38 -14 37 -23 213 -41 275 -27 29 6 70 11 90 11 20 1 48 7 62 15 14 8 36 14 48 15 13 0 36 6 50 14 15 8 35 17 45 20 9 3 19 11 21 18 2 7 11 47 21 88 31 129 92 252 163 329 12 13 19 28 15 32 -5 4 -35 9 -68 12 -98 8 -322 52 -373 73 -18 8 -42 14 -52 14 -11 0 -28 4 -38 10 -24 14 -101 41 -134 47 -15 3 -33 11 -39 19 -6 8 -19 14 -29 14 -10 0 -23 7 -30 15 -7 8 -21 15 -31 15 -10 0 -21 5 -24 11 -4 5 -17 14 -28 20 -28 12 -53 27 -98 62 -20 15 -39 27 -43 27 -5 0 -24 16 -118 101 -60 54 -181 206 -218 275 -11 21 -25 46 -29 54 -49 87 -110 255 -130 355 -5 22 -13 60 -19 85 -44 187 -58 588 -26 747 28 139 74 281 115 353 4 8 20 38 34 65 35 68 48 89 63 98 6 4 12 13 12 19 0 10 46 72 88 117 24 26 26 33 15 45 -24 23 -62 252 -63 371 0 136 28 304 74 439 32 92 23 88 149 83 122 -4 234 -30 319 -73 14 -8 35 -14 46 -14 11 0 25 -7 32 -15 7 -8 20 -15 30 -15 10 0 23 -7 30 -15 7 -8 20 -15 30 -15 10 0 23 -7 30 -15 7 -8 20 -15 30 -15 10 0 23 -7 30 -15 7 -8 16 -15 21 -15 7 0 89 -48 157 -92 15 -10 34 -21 42 -25 8 -3 18 -11 21 -16 7 -10 76 2 160 29 26 8 57 14 70 14 13 0 56 6 94 14 155 33 320 46 566 46 135 0 270 -5 300 -10 30 -6 95 -15 145 -20 114 -13 245 -38 366 -72 30 -9 41 -8 66 8 195 124 414 244 444 244 8 0 23 7 34 15 10 8 27 15 37 15 11 0 31 6 45 14 62 32 255 62 324 50 32 -5 40 -12 56 -47 20 -47 43 -126 66 -233 19 -86 23 -416 5 -461 -6 -15 -14 -48 -19 -73 -4 -25 -14 -60 -21 -78 -12 -29 -12 -35 1 -45 41 -31 150 -192 199 -292 56 -115 62 -134 104 -285 22 -77 41 -248 41 -355 -1 -174 -30 -419 -66 -550 -6 -22 -14 -56 -19 -75 -7 -37 -23 -84 -46 -137 -7 -17 -13 -38 -13 -46 0 -8 -7 -20 -15 -27 -8 -7 -15 -20 -15 -30 0 -10 -7 -23 -15 -30 -8 -7 -15 -21 -15 -31 0 -10 -5 -21 -11 -24 -5 -4 -14 -17 -20 -28 -14 -33 -33 -61 -46 -70 -7 -4 -13 -13 -13 -18 0 -14 -81 -109 -145 -172 -113 -111 -249 -198 -430 -277 -70 -30 -84 -36 -135 -52 -84 -28 -155 -46 -230 -62 -41 -8 -109 -22 -150 -31 -41 -8 -94 -15 -117 -15 -23 0 -45 -4 -48 -10 -3 -5 13 -36 37 -67 49 -66 99 -164 122 -238 45 -148 46 -166 46 -767 l0 -573 25 -38 c14 -20 42 -44 62 -52 39 -16 138 -20 147 -6 3 5 18 11 33 14 34 6 111 33 135 47 10 6 22 10 28 10 17 0 260 115 335 158 11 7 27 15 35 19 62 27 367 228 447 295 28 24 61 50 72 59 43 32 263 234 282 257 10 13 48 56 85 96 102 111 106 115 187 223 42 56 77 107 77 113 0 5 4 10 9 10 5 0 22 21 38 46 15 26 36 58 45 73 10 14 21 33 24 41 4 8 13 22 19 30 29 35 156 282 209 405 7 17 21 47 30 68 9 21 16 46 16 56 0 10 7 24 15 31 8 7 15 20 15 30 0 10 7 31 15 46 8 16 15 36 15 45 0 9 7 30 15 45 8 16 15 38 15 49 0 10 6 37 14 60 41 119 100 412 111 555 3 41 10 109 15 150 14 115 11 392 -5 515 -8 61 -15 129 -15 152 0 39 -15 128 -41 243 -6 25 -14 65 -18 90 -5 25 -18 81 -31 125 -12 44 -26 94 -30 110 -10 37 -28 90 -46 133 -8 18 -14 41 -14 50 0 10 -7 27 -15 38 -8 10 -15 27 -15 36 0 9 -6 29 -14 45 -8 15 -30 62 -49 103 -73 156 -138 284 -178 345 -10 17 -23 39 -29 50 -15 29 -32 56 -62 96 -16 20 -28 40 -28 43 0 10 -179 246 -224 295 -121 132 -159 172 -246 257 -52 51 -108 103 -125 115 -16 13 -41 35 -57 49 -15 14 -46 39 -68 55 -23 17 -49 38 -58 48 -9 9 -20 17 -25 17 -4 0 -40 24 -80 54 -40 29 -94 66 -120 82 -27 16 -61 37 -75 46 -15 10 -36 22 -47 27 -11 5 -37 21 -58 35 -21 14 -44 26 -51 26 -8 0 -19 7 -26 15 -7 8 -20 15 -30 15 -10 0 -23 7 -30 15 -7 8 -20 15 -30 15 -10 0 -23 7 -30 15 -7 8 -19 15 -27 15 -8 0 -28 7 -44 15 -16 8 -42 22 -58 30 -16 8 -36 15 -44 15 -9 0 -28 6 -44 14 -51 26 -101 46 -116 46 -8 0 -28 7 -43 15 -16 8 -38 15 -49 15 -11 1 -31 7 -45 15 -14 8 -38 15 -55 15 -16 0 -41 7 -55 15 -14 8 -38 14 -53 15 -16 0 -37 5 -47 10 -10 6 -45 14 -77 19 -32 5 -83 14 -113 19 -174 33 -288 43 -530 45 -140 2 -289 1 -330 0z"/> </g> </svg> 